HIERARCHY
ROOT root
{
	OFFSET 0.000000 0.000000 0.000000
	CHANNELS 6 Xposition Yposition Zposition Zrotation Yrotation Xrotation
	JOINT lhip
	{
		OFFSET 0.058581 -0.082280 -0.017664
		CHANNELS 3 Zrotation Yrotation Xrotation
		JOINT lknee
		{
			OFFSET 0.043451 -0.386469 0.008037
			CHANNELS 3 Zrotation Yrotation Xrotation
			JOINT lankle
			{
				OFFSET -0.014790 -0.426874 -0.037428
				CHANNELS 3 Zrotation Yrotation Xrotation
				JOINT ltoe
				{
					OFFSET 0.041054 -0.060286 0.122042
					CHANNELS 3 Zrotation Yrotation Xrotation
					End Site
					{
						OFFSET 0.000000 0.000000 0.000000
					}
				}
			}
		}
	}
	JOINT rhip
	{
		OFFSET -0.060310 -0.090513 -0.013543
		CHANNELS 3 Zrotation Yrotation Xrotation
		JOINT rknee
		{
			OFFSET -0.043257 -0.383688 -0.004843
			CHANNELS 3 Zrotation Yrotation Xrotation
			JOINT rankle
			{
				OFFSET 0.019056 -0.420046 -0.034562
				CHANNELS 3 Zrotation Yrotation Xrotation
				JOINT rtoe
				{
					OFFSET -0.034840 -0.062106 0.130323
					CHANNELS 3 Zrotation Yrotation Xrotation
					End Site
					{
						OFFSET 0.000000 0.000000 0.000000
					}
				}
			}
		}
	}
	JOINT lowerback
	{
		OFFSET 0.004439 0.124404 -0.038385
		CHANNELS 3 Zrotation Yrotation Xrotation
		JOINT upperback
		{
			OFFSET 0.004488 0.137956 0.026820
			CHANNELS 3 Zrotation Yrotation Xrotation
			JOINT chest
			{
				OFFSET -0.002265 0.056032 0.002855
				CHANNELS 3 Zrotation Yrotation Xrotation
				JOINT lowerneck
				{
					OFFSET -0.013390 0.211636 -0.033468
					CHANNELS 3 Zrotation Yrotation Xrotation
					JOINT upperneck
					{
						OFFSET 0.010113 0.088937 0.050410
						CHANNELS 3 Zrotation Yrotation Xrotation
						End Site
						{
							OFFSET 0.000000 0.000000 0.000000
						}
					}
				}
				JOINT lclavicle
				{
					OFFSET 0.071702 0.114000 -0.018898
					CHANNELS 3 Zrotation Yrotation Xrotation
					JOINT lshoulder
					{
						OFFSET 0.122921 0.045205 -0.019046
						CHANNELS 3 Zrotation Yrotation Xrotation
						JOINT lelbow
						{
							OFFSET 0.255332 -0.015649 -0.022946
							CHANNELS 3 Zrotation Yrotation Xrotation
							JOINT lwrist
							{
								OFFSET 0.265709 0.012698 -0.007375
								CHANNELS 3 Zrotation Yrotation Xrotation
								End Site
								{
									OFFSET 0.000000 0.000000 0.000000
								}
							}
						}
					}
				}
				JOINT rclavicle
				{
					OFFSET -0.082954 0.112472 -0.023707
					CHANNELS 3 Zrotation Yrotation Xrotation
					JOINT rshoulder
					{
						OFFSET -0.113228 0.046853 -0.008472
						CHANNELS 3 Zrotation Yrotation Xrotation
						JOINT relbow
						{
							OFFSET -0.260127 -0.014369 -0.031269
							CHANNELS 3 Zrotation Yrotation Xrotation
							JOINT rwrist
							{
								OFFSET -0.269108 0.006794 -0.006027
								CHANNELS 3 Zrotation Yrotation Xrotation
								End Site
								{
									OFFSET 0.000000 0.000000 0.000000
								}
							}
						}
					}
				}
			}
		}
	}
}
MOTION
Frames: 10
Frame Time: 0.033333
2.041390 0.009279 0.998925 -12.407241 2.129917 98.374014 1.682836 0.816705 -16.692619 -8.030988 4.381821 0.330016 3.377035 5.595888 -6.161593 0.000000 -0.000000 0.000000 -3.881402 0.358091 -23.491605 -1.519224 -9.771913 46.343065 3.960513 -6.387449 -16.936103 0.000000 -0.000000 0.000000 -3.488839 0.326880 18.715962 0.556800 -1.298869 -4.193879 1.533821 -0.299977 -3.949235 3.438100 1.186092 -26.715172 6.009752 -9.821207 -11.140541 -26.366470 -9.855399 5.156696 -55.404207 -8.869078 11.714657 9.161913 -27.106378 -7.605837 -10.106701 -20.299564 -25.796267 28.426032 14.166149 5.272371 60.458660 14.047216 20.345946 -9.715062 34.872242 9.101483 18.978138 7.994616 4.980063 
2.041923 0.011780 0.996847 -13.040128 1.633233 98.646681 1.247395 1.108187 -17.002718 -8.281622 4.655384 -0.018141 3.732075 5.465654 -5.592561 0.000000 -0.000000 0.000000 -4.402007 -1.118448 -20.038714 -2.944083 -10.871890 46.230410 3.229550 -7.890826 -17.250507 0.000000 -0.000000 0.000000 -3.711507 1.091089 17.733364 0.461440 -1.505904 -4.591204 1.377212 -0.081201 -3.777633 3.218639 0.436110 -26.071496 6.255691 -9.408718 -11.063757 -27.027486 -9.544770 5.161681 -54.610845 -8.427992 12.370012 7.419016 -29.842263 -4.350744 -2.733961 -15.685861 -21.718553 28.499313 13.828779 4.987186 60.020764 12.658546 20.795781 -8.308159 37.141680 10.418818 15.662177 8.154235 3.861330 
2.042681 0.014949 0.994312 -13.835963 1.190063 99.068661 1.014994 0.932192 -17.915685 -8.420643 5.587260 0.307594 4.239056 5.317838 -5.203261 0.000000 -0.000000 0.000000 -5.153880 -2.607575 -16.740270 -3.661078 -11.730137 44.968232 2.414836 -9.745459 -17.014871 0.000000 -0.000000 0.000000 -3.749500 2.066157 16.419355 0.220387 -1.513442 -4.619417 1.280426 0.064638 -3.728717 3.108636 -0.406486 -25.576092 6.373094 -8.819478 -10.946261 -27.328552 -9.254665 5.118469 -54.539088 -8.582469 12.669977 7.209490 -31.758190 -3.122804 1.107572 -13.515311 -20.226378 28.350636 13.548458 5.032865 59.621037 11.793998 20.811914 -7.422159 38.764854 11.095236 15.179927 8.786875 3.740993 
2.043847 0.020109 0.991688 -14.958025 0.715038 99.534742 0.936730 0.242717 -19.341986 -8.417914 7.273401 1.129698 4.827397 5.230034 -4.859036 0.000000 -0.000000 0.000000 -6.364687 -4.739616 -12.706004 -3.553915 -12.474765 41.772585 1.471183 -10.879325 -15.991881 0.000000 -0.000000 0.000000 -3.339509 3.493320 14.867028 -0.240788 -1.552610 -4.503523 0.994168 0.276335 -3.782944 2.860971 -1.346885 -24.987064 6.462303 -8.266853 -10.680186 -27.489768 -8.992386 5.090857 -54.744163 -9.158016 12.763741 8.051347 -33.452123 -3.703307 2.191347 -13.413775 -21.842098 28.165345 13.476912 5.427742 59.134589 11.464216 20.946993 -6.481755 39.614913 11.988244 15.019781 8.957861 3.999972 
2.044379 0.024059 0.990642 -15.937159 0.476463 99.784979 0.995083 -0.076817 -20.163993 -8.393642 8.353285 1.522647 5.180895 5.301149 -4.630203 0.000000 -0.000000 0.000000 -7.136691 -5.858046 -10.581228 -2.847590 -12.311797 39.244014 1.412169 -10.287164 -14.668815 0.000000 -0.000000 0.000000 -3.017794 4.411558 13.934915 -0.556233 -1.502045 -4.326522 0.747336 0.486502 -3.891643 2.622925 -1.795150 -24.594665 6.528509 -8.095290 -10.419772 -27.587780 -8.915711 4.973215 -54.809837 -9.315116 12.942822 8.505102 -34.345682 -4.035936 2.757554 -13.335789 -22.339072 28.161152 13.659218 5.788131 58.783889 11.660788 20.971830 -5.901559 39.348272 12.450022 14.969148 8.962143 4.421708 
2.043147 0.030059 0.989276 -18.428778 0.314079 100.167957 1.512725 0.293357 -20.814556 -8.754835 9.983313 1.254041 5.555085 5.666108 -4.274231 0.000000 -0.000000 0.000000 -7.907398 -6.430709 -8.648296 -1.766157 -11.151449 35.711187 2.343466 -8.722689 -13.848982 0.000000 -0.000000 0.000000 -3.187975 5.638527 12.246811 -0.926870 -0.706087 -3.803350 0.615433 1.037108 -4.118268 2.362366 -2.115723 -23.776361 6.668647 -7.916945 -10.186719 -27.622332 -8.697187 4.799892 -54.834517 -9.274914 13.260596 9.061530 -35.607607 -4.487090 3.305032 -12.925963 -22.722809 28.276643 14.078829 6.486975 58.295757 12.416026 21.029741 -4.966829 38.322992 13.298714 15.005240 8.639058 4.961078 
2.043143 0.037656 0.988362 -20.732385 0.153326 100.510941 1.860761 0.598405 -21.619786 -8.815264 11.424065 1.185550 5.671215 6.063727 -3.926025 0.000000 -0.000000 0.000000 -8.608103 -6.914711 -7.510067 -0.800738 -9.898869 31.902227 3.316880 -7.004550 -14.643169 0.000000 -0.000000 0.000000 -2.880655 6.544443 10.946802 -1.405274 -0.090742 -3.582676 0.292258 1.503511 -4.150604 2.245300 -1.962029 -23.262541 6.490332 -7.803381 -9.665450 -27.600668 -8.227424 4.484166 -54.916942 -9.271961 13.552040 9.455066 -36.619185 -4.764359 3.322939 -13.016500 -23.170679 28.278033 14.497980 6.989973 57.854274 13.673177 21.209467 -3.915931 36.841673 14.257500 15.297456 8.273759 5.538028 
2.042631 0.046675 0.988054 -23.201954 -0.056230 100.647822 2.242029 0.945780 -22.221571 -8.839936 12.918465 1.154524 5.659730 6.561842 -3.603838 0.000000 -0.000000 0.000000 -9.251447 -7.089536 -6.999522 -0.093021 -8.675607 28.661982 4.178128 -5.558697 -15.325414 0.000000 -0.000000 0.000000 -2.786769 7.126803 10.039669 -1.815261 0.542648 -3.449874 0.045851 1.997170 -4.136053 2.196236 -1.461698 -23.011898 6.235132 -7.735184 -8.897640 -27.547858 -7.551010 4.161917 -54.899190 -9.159784 13.793579 9.751831 -37.555109 -5.016911 3.347136 -13.660509 -23.899842 28.437255 14.922864 7.361272 57.477019 15.243647 21.515147 -3.119086 35.200003 15.009427 15.488723 7.932106 6.475703 
2.041425 0.056296 0.987964 -25.593244 -0.239943 100.388758 2.688197 1.336384 -22.428035 -8.755916 14.274816 1.271280 5.401457 7.107044 -3.334820 0.000000 -0.000000 0.000000 -9.849509 -7.195503 -6.507105 0.448853 -8.066330 26.381772 4.927455 -4.171805 -15.668675 0.000000 -0.000000 0.000000 -2.709256 7.362487 9.703579 -2.162444 1.087657 -3.374352 -0.072854 2.430881 -4.132852 2.212509 -0.847473 -22.715333 6.021442 -7.384403 -8.265923 -27.520758 -6.929415 3.928215 -54.882502 -8.828754 13.870032 10.018608 -38.371489 -5.222918 3.572258 -14.321100 -24.455981 28.588117 15.312302 7.616985 57.091059 16.795639 21.718869 -2.242573 34.125744 15.964435 15.322444 7.683256 7.447406 
2.039711 0.069343 0.987630 -27.899049 -0.304381 99.799216 3.462668 1.678075 -22.673290 -8.470044 15.750870 1.898799 4.907807 7.607282 -3.080105 0.000000 -0.000000 0.000000 -10.385362 -7.321040 -5.523669 1.463150 -8.398632 23.626173 5.422336 -2.901237 -16.029751 0.000000 -0.000000 0.000000 -2.057054 7.482169 9.785428 -2.470723 1.234498 -3.390055 -0.351356 2.603126 -4.017805 2.284455 -0.008537 -22.277209 5.773947 -6.730449 -7.473809 -27.463721 -6.352692 3.825930 -55.006121 -8.299776 13.759885 10.216082 -38.948300 -5.321060 3.747116 -15.003564 -24.625017 28.626507 15.492502 7.625673 56.742214 18.385651 21.776869 -1.114327 34.065345 17.096764 15.092604 7.689986 8.095287 
